-
http:// www. Speed. Cd       
http:// www. Speed. Cd       the fast  and The Hottest Private Tracker on the net

Please Seed back to make the speed Faster!!!

and don't forget to visit      ...... www. Speed. Cd..........
-                                                                                                     
       
     
     
       
       
     
     
                                         
                                         
                EXVID                    
                                         
         
                                         
         Filled the Archives             
                                         
         
                                         
                With:                    
                                         
         
                                         
                                    
     E240                           
                                    
     SP               (C) 2009      
                                         
     
     
     
                                                                                  
                                                                                   
  The.Chronicles.Of.Narnia.The.Voyage.Of.The.Dawn.Treader.2010.PROPER.DVDRip.XviD-EXViD     
                                                                                   
                                                                                  
     
                                                                                               
EXViD aims to iNTERNAL those releases which have been lost in the archives.
EXViD aims to PRE non-internal releases which have poor sources and are likely skipped by others.
 
http://www.imdb.com/title/tt0980970/
Subtitles: NL, FR, EN, AR
Date: 2011.04

Director: Michael Apted

Genres:
Genres: Adventure | Family | Fantasy

Plot:
Lucy and Edmund Pevensie return to Narnia with their cousin Eustace where they meet up with Prince
Caspian for a trip across the sea aboard the royal ship The Dawn Treader. Along the way they
encounter dragons, dwarves, merfolk, and a band of lost warriors before reaching the edge of
the world.

Cast:
Credited cast:
Georgie Henley 	 ... 	Lucy Pevensie 
Skandar Keynes 	 ... 	Edmund Pevensie 
Ben Barnes 	 ... 	Caspian 
Will Poulter 	 ... 	Eustace Clarence Scrubb 
Gary Sweet 	 ... 	Drinian 
Terry Norris 	 ... 	Lord Bern 
Bruce Spence 	 ... 	Lord Rhoop 
Bille Brown 	 ... 	Coriakin 
Laura Brent 	 ... 	Liliandil 
Colin Moody 	 ... 	 Auctioneer 
Tilda Swinton 	 ... 	The White Witch 
Anna Popplewell 	 ... 	Susan Pevensie 
William Moseley 	 ... 	Peter Pevensie 
Shane Rangi 	 ... 	Tavros 
Arthur Angel 	 ... 	Rhince

Stats:
Format                           : AVI
Format/Info                      : Audio Video Interleave
File size                        : 1.37 GiB
Duration                         : 1h 48mn
Overall bit rate                 : 1 810 Kbps
Writing application              : VirtualDubMod 1.5.10.2 (build 2540/release)
Writing library                  : VirtualDubMod build 2540/release

Video
ID                               : 0
Format                           : MPEG-4 Visual
Format profile                   : Advanced Simple@L5
Format settings, BVOP            : Yes
Format settings, QPel            : No
Format settings, GMC             : No warppoints
Format settings, Matrix          : Default (H.263)
Muxing mode                      : Packed bitstream
Codec ID                         : XVID
Codec ID/Hint                    : XviD
Duration                         : 1h 48mn
Bit rate                         : 1 353 Kbps
Width                            : 640 pixels
Height                           : 352 pixels
Display aspect ratio             : 16:9
Frame rate                       : 25.000 fps
Color space                      : YUV
Chroma subsampling               : 4:2:0
Bit depth                        : 8 bits
Scan type                        : Progressive
Bits/(Pixel*Frame)               : 0.240
Stream size                      : 1.02 GiB (75%)
Writing library                  : XviD 62

Audio
ID                               : 1
Format                           : AC-3
Format/Info                      : Audio Coding 3
Mode extension                   : CM (complete main)
Codec ID                         : 2000
Duration                         : 1h 48mn
Bit rate mode                    : Constant
Bit rate                         : 448 Kbps
Channel(s)                       : 6 channels
Channel positions                : Front: L C R, Side: L R, LFE
Sampling rate                    : 48.0 KHz
Bit depth                        : 16 bits
Stream size                      : 346 MiB (25%)
Alignment                        : Split accross interleaves
Interleave, duration             : 40 ms (1.00 video frame)
Interleave, preload duration     : 500 ms




Release notes:
DASH & friends used fake proof on their releases:

Real R2 proof pic included.

enjoy!

Looking for:
75TB+ Archives
DUTCH/FLEMiSH Archives
                                                                                                    
Greets: CRBS EPiSODE FiCO FLS iLS KLASSiGER LiPSYNC MADE NODLABS RUNNER SPRiNTER      
   

                                                                    ASCII DONE BY XX^NFO 2oo9